<svg width="2009" height="244" viewBox="0 0 2009 244" fill="none" xmlns="http://www.w3.org/2000/svg">
<path d="M0 0.000244141H2009V214C2009 230.569 1995.57 244 1979 244H30C13.4315 244 0 230.569 0 214V0.000244141Z" fill="white"/>
<path d="M902.132 121.512C902.943 121.64 903.679 121.971 904.34 122.504C905.023 123.038 905.556 123.699 905.94 124.488C906.345 125.278 906.548 126.12 906.548 127.016C906.548 128.147 906.26 129.171 905.684 130.088C905.108 130.984 904.265 131.699 903.156 132.232C902.068 132.744 900.777 133 899.284 133H890.964V110.696H898.964C900.479 110.696 901.769 110.952 902.836 111.464C903.903 111.955 904.703 112.627 905.236 113.48C905.769 114.334 906.036 115.294 906.036 116.36C906.036 117.683 905.673 118.782 904.948 119.656C904.244 120.51 903.305 121.128 902.132 121.512ZM893.876 120.328H898.772C900.137 120.328 901.193 120.008 901.94 119.368C902.687 118.728 903.06 117.843 903.06 116.712C903.06 115.582 902.687 114.696 901.94 114.056C901.193 113.416 900.116 113.096 898.708 113.096H893.876V120.328ZM899.028 130.6C900.479 130.6 901.609 130.259 902.42 129.576C903.231 128.894 903.636 127.944 903.636 126.728C903.636 125.491 903.209 124.52 902.356 123.816C901.503 123.091 900.361 122.728 898.932 122.728H893.876V130.6H899.028ZM909.501 124.168C909.501 122.376 909.864 120.808 910.589 119.464C911.314 118.099 912.306 117.043 913.565 116.296C914.845 115.55 916.264 115.176 917.821 115.176C919.357 115.176 920.69 115.507 921.821 116.168C922.952 116.83 923.794 117.662 924.349 118.664V115.464H927.293V133H924.349V129.736C923.773 130.76 922.909 131.614 921.757 132.296C920.626 132.958 919.304 133.288 917.789 133.288C916.232 133.288 914.824 132.904 913.565 132.136C912.306 131.368 911.314 130.291 910.589 128.904C909.864 127.518 909.501 125.939 909.501 124.168ZM924.349 124.2C924.349 122.878 924.082 121.726 923.549 120.744C923.016 119.763 922.29 119.016 921.373 118.504C920.477 117.971 919.485 117.704 918.397 117.704C917.309 117.704 916.317 117.96 915.421 118.472C914.525 118.984 913.81 119.731 913.277 120.712C912.744 121.694 912.477 122.846 912.477 124.168C912.477 125.512 912.744 126.686 913.277 127.688C913.81 128.67 914.525 129.427 915.421 129.96C916.317 130.472 917.309 130.728 918.397 130.728C919.485 130.728 920.477 130.472 921.373 129.96C922.29 129.427 923.016 128.67 923.549 127.688C924.082 126.686 924.349 125.523 924.349 124.2ZM940.758 115.144C942.891 115.144 944.619 115.795 945.942 117.096C947.265 118.376 947.926 120.232 947.926 122.664V133H945.046V123.08C945.046 121.331 944.609 119.998 943.734 119.08C942.859 118.142 941.665 117.672 940.15 117.672C938.614 117.672 937.387 118.152 936.47 119.112C935.574 120.072 935.126 121.47 935.126 123.304V133H932.214V115.464H935.126V117.96C935.702 117.064 936.481 116.371 937.462 115.88C938.465 115.39 939.563 115.144 940.758 115.144ZM961.227 115.144C963.36 115.144 965.088 115.795 966.411 117.096C967.733 118.376 968.395 120.232 968.395 122.664V133H965.515V123.08C965.515 121.331 965.077 119.998 964.203 119.08C963.328 118.142 962.133 117.672 960.619 117.672C959.083 117.672 957.856 118.152 956.939 119.112C956.043 120.072 955.595 121.47 955.595 123.304V133H952.683V115.464H955.595V117.96C956.171 117.064 956.949 116.371 957.931 115.88C958.933 115.39 960.032 115.144 961.227 115.144ZM989.152 123.56C989.152 124.115 989.12 124.702 989.056 125.32H975.04C975.146 127.048 975.733 128.403 976.8 129.384C977.888 130.344 979.2 130.824 980.736 130.824C981.994 130.824 983.04 130.536 983.872 129.96C984.725 129.363 985.322 128.574 985.664 127.592H988.8C988.33 129.278 987.392 130.654 985.984 131.72C984.576 132.766 982.826 133.288 980.736 133.288C979.072 133.288 977.578 132.915 976.256 132.168C974.954 131.422 973.93 130.366 973.184 129C972.437 127.614 972.064 126.014 972.064 124.2C972.064 122.387 972.426 120.798 973.152 119.432C973.877 118.067 974.89 117.022 976.192 116.296C977.514 115.55 979.029 115.176 980.736 115.176C982.4 115.176 983.872 115.539 985.152 116.264C986.432 116.99 987.413 117.992 988.096 119.272C988.8 120.531 989.152 121.96 989.152 123.56ZM986.144 122.952C986.144 121.843 985.898 120.894 985.408 120.104C984.917 119.294 984.245 118.686 983.392 118.28C982.56 117.854 981.632 117.64 980.608 117.64C979.136 117.64 977.877 118.11 976.832 119.048C975.808 119.987 975.221 121.288 975.072 122.952H986.144ZM995.907 118.312C996.419 117.31 997.145 116.531 998.083 115.976C999.043 115.422 1000.21 115.144 1001.57 115.144V118.152H1000.8C997.539 118.152 995.907 119.923 995.907 123.464V133H992.995V115.464H995.907V118.312ZM1028.38 117.224C1028.38 119.08 1027.74 120.627 1026.46 121.864C1025.2 123.08 1023.27 123.688 1020.66 123.688H1016.38V133H1013.46V110.696H1020.66C1023.18 110.696 1025.09 111.304 1026.39 112.52C1027.71 113.736 1028.38 115.304 1028.38 117.224ZM1020.66 121.288C1022.29 121.288 1023.48 120.936 1024.25 120.232C1025.02 119.528 1025.4 118.526 1025.4 117.224C1025.4 114.472 1023.82 113.096 1020.66 113.096H1016.38V121.288H1020.66ZM1034.91 118.312C1035.42 117.31 1036.14 116.531 1037.08 115.976C1038.04 115.422 1039.21 115.144 1040.57 115.144V118.152H1039.8C1036.54 118.152 1034.91 119.923 1034.91 123.464V133H1032V115.464H1034.91V118.312ZM1051.58 133.288C1049.94 133.288 1048.44 132.915 1047.1 132.168C1045.78 131.422 1044.73 130.366 1043.96 129C1043.22 127.614 1042.84 126.014 1042.84 124.2C1042.84 122.408 1043.23 120.83 1044 119.464C1044.79 118.078 1045.85 117.022 1047.2 116.296C1048.54 115.55 1050.04 115.176 1051.71 115.176C1053.37 115.176 1054.88 115.55 1056.22 116.296C1057.56 117.022 1058.62 118.067 1059.39 119.432C1060.18 120.798 1060.57 122.387 1060.57 124.2C1060.57 126.014 1060.17 127.614 1059.36 129C1058.57 130.366 1057.49 131.422 1056.12 132.168C1054.76 132.915 1053.24 133.288 1051.58 133.288ZM1051.58 130.728C1052.63 130.728 1053.61 130.483 1054.52 129.992C1055.44 129.502 1056.18 128.766 1056.73 127.784C1057.31 126.803 1057.6 125.608 1057.6 124.2C1057.6 122.792 1057.32 121.598 1056.76 120.616C1056.21 119.635 1055.48 118.91 1054.59 118.44C1053.69 117.95 1052.72 117.704 1051.68 117.704C1050.61 117.704 1049.63 117.95 1048.73 118.44C1047.86 118.91 1047.15 119.635 1046.62 120.616C1046.09 121.598 1045.82 122.792 1045.82 124.2C1045.82 125.63 1046.08 126.835 1046.59 127.816C1047.12 128.798 1047.83 129.534 1048.7 130.024C1049.58 130.494 1050.54 130.728 1051.58 130.728ZM1063.31 124.168C1063.31 122.376 1063.68 120.808 1064.4 119.464C1065.13 118.099 1066.12 117.043 1067.38 116.296C1068.66 115.55 1070.09 115.176 1071.67 115.176C1073.03 115.176 1074.3 115.496 1075.47 116.136C1076.65 116.755 1077.54 117.576 1078.16 118.6V109.32H1081.11V133H1078.16V129.704C1077.59 130.75 1076.73 131.614 1075.6 132.296C1074.47 132.958 1073.15 133.288 1071.63 133.288C1070.08 133.288 1068.66 132.904 1067.38 132.136C1066.12 131.368 1065.13 130.291 1064.4 128.904C1063.68 127.518 1063.31 125.939 1063.31 124.168ZM1078.16 124.2C1078.16 122.878 1077.89 121.726 1077.36 120.744C1076.83 119.763 1076.1 119.016 1075.19 118.504C1074.29 117.971 1073.3 117.704 1072.21 117.704C1071.12 117.704 1070.13 117.96 1069.23 118.472C1068.34 118.984 1067.62 119.731 1067.09 120.712C1066.56 121.694 1066.29 122.846 1066.29 124.168C1066.29 125.512 1066.56 126.686 1067.09 127.688C1067.62 128.67 1068.34 129.427 1069.23 129.96C1070.13 130.472 1071.12 130.728 1072.21 130.728C1073.3 130.728 1074.29 130.472 1075.19 129.96C1076.1 129.427 1076.83 128.67 1077.36 127.688C1077.89 126.686 1078.16 125.523 1078.16 124.2ZM1101.58 115.464V133H1098.67V130.408C1098.11 131.304 1097.33 132.008 1096.33 132.52C1095.35 133.011 1094.26 133.256 1093.07 133.256C1091.7 133.256 1090.47 132.979 1089.39 132.424C1088.3 131.848 1087.43 130.995 1086.79 129.864C1086.18 128.734 1085.87 127.358 1085.87 125.736V115.464H1088.75V125.352C1088.75 127.08 1089.18 128.414 1090.06 129.352C1090.93 130.27 1092.13 130.728 1093.64 130.728C1095.2 130.728 1096.43 130.248 1097.32 129.288C1098.22 128.328 1098.67 126.931 1098.67 125.096V115.464H1101.58ZM1116.29 133L1109.41 125.256V133H1106.5V109.32H1109.41V123.24L1116.16 115.464H1120.22L1111.97 124.2L1120.26 133H1116.29Z" fill="black"/>
</svg>
