<svg width="86" height="86" viewBox="0 0 86 86" fill="none" xmlns="http://www.w3.org/2000/svg">
<path fill-rule="evenodd" clip-rule="evenodd" d="M25.2914 46.5964C24.3541 45.6588 23.8275 44.3872 23.8275 43.0614C23.8275 41.7356 24.3541 40.464 25.2914 39.5264L53.5764 11.2414C54.0376 10.7639 54.5894 10.3829 55.1994 10.1209C55.8094 9.85886 56.4655 9.72092 57.1294 9.71515C57.7933 9.70939 58.4517 9.8359 59.0662 10.0873C59.6807 10.3387 60.2389 10.71 60.7084 11.1794C61.1778 11.6489 61.5491 12.2072 61.8005 12.8216C62.0519 13.4361 62.1784 14.0945 62.1727 14.7584C62.1669 15.4223 62.029 16.0784 61.7669 16.6884C61.5049 17.2984 61.124 17.8502 60.6464 18.3114L35.8964 43.0614L60.6464 67.8114C61.5572 68.7544 62.0612 70.0174 62.0498 71.3284C62.0384 72.6394 61.5125 73.8935 60.5855 74.8205C59.6585 75.7475 58.4044 76.2734 57.0934 76.2848C55.7824 76.2962 54.5194 75.7922 53.5764 74.8814L25.2914 46.5964Z" fill="#417772"/>
</svg>
