<svg width="86" height="86" viewBox="0 0 86 86" fill="none" xmlns="http://www.w3.org/2000/svg">
<path fill-rule="evenodd" clip-rule="evenodd" d="M60.7086 39.4036C61.6459 40.3412 62.1725 41.6128 62.1725 42.9386C62.1725 44.2644 61.6459 45.536 60.7086 46.4736L32.4236 74.7586C31.9624 75.2361 31.4106 75.6171 30.8006 75.8791C30.1906 76.1411 29.5345 76.2791 28.8706 76.2848C28.2067 76.2906 27.5483 76.1641 26.9338 75.9127C26.3193 75.6613 25.7611 75.29 25.2916 74.8206C24.8222 74.3511 24.4509 73.7928 24.1995 73.1784C23.9481 72.5639 23.8216 71.9055 23.8273 71.2416C23.8331 70.5777 23.971 69.9216 24.2331 69.3116C24.4951 68.7016 24.876 68.1498 25.3536 67.6886L50.1036 42.9386L25.3536 18.1886C24.4428 17.2456 23.9388 15.9826 23.9502 14.6716C23.9616 13.3606 24.4875 12.1065 25.4145 11.1795C26.3415 10.2525 27.5956 9.72661 28.9066 9.71522C30.2176 9.70383 31.4806 10.2078 32.4236 11.1186L60.7086 39.4036Z" fill="#417772"/>
</svg>
